# xmcd
#
# Track frame offsets: 
#        150
#        15552
#        28935
#        42210
#        60596
#        82789
#        92503
#        108224
#        125413
#        150633
#
# Disc length: 2146 seconds
#
# Revision: 2
# Processed by: cddbd v1.5.1PL0 Copyright (c) Steve Scherf et al.
# Submitted via: ExactAudioCopy v0.90b4
#
DISCID=6a08600a
DTITLE=Howlin' Wolf - Electric Blues
DYEAR=2001
DGENRE=Blues
TTITLE0=Do the Do
TTITLE1=Highway 49
TTITLE2=Worried About You
TTITLE3=Poor Boy
TTITLE4=Wang Dang Doodle
TTITLE5=Cause of It All
TTITLE6=Killing Floor
TTITLE7=Commit a Crime
TTITLE8=Little Red Rooster
TTITLE9=Built for Comfort
EXTD=YEAR: 2000 ID3G:   0
EXTT0=
EXTT1=
EXTT2=
EXTT3=
EXTT4=
EXTT5=
EXTT6=
EXTT7=
EXTT8=
EXTT9=
PLAYORDER=
